<svg xmlns="http://www.w3.org/2000/svg" xmlns:xlink="http://www.w3.org/1999/xlink" fill="none" version="1.1" width="45" height="36" viewBox="0 0 45 36"><defs><clipPath id="master_svg0_1_0273"><rect x="0" y="0" width="45" height="36" rx="0"/></clipPath></defs><g clip-path="url(#master_svg0_1_0273)"><g transform="matrix(1,0,0,-1,0,69.046875)"><g><path d="M9,63.7734375Q9,64.7578375,9.63281,65.3906375Q10.2656,66.0234375,11.25,66.0234375L22.5,66.0234375Q23.4844,66.0234375,24.1172,65.3906375Q24.75,64.7578375,24.75,63.7734375L24.75,39.0234375L31.5,39.0234375L31.5,50.2734375Q31.5,51.2578375,32.1328,51.8906375Q32.7656,52.5234375,33.75,52.5234375L42.75,52.5234375Q43.7344,52.5234375,44.3672,51.8906375Q45,51.2578375,45,50.2734375Q45,49.2890375,44.3672,48.6562375Q43.7344,48.0234375,42.75,48.0234375L36,48.0234375L36,36.7734375Q36,35.7890575,35.3672,35.1562495Q34.7344,34.5234375,33.75,34.5234375L22.5,34.5234375Q21.5156,34.5234375,20.8828,35.1562495Q20.25,35.7890575,20.25,36.7734375L20.25,61.5234375L13.5,61.5234375L13.5,50.2734375Q13.5,49.2890375,12.8672,48.6562375Q12.2344,48.0234375,11.25,48.0234375L2.25,48.0234375Q1.26562,48.0234375,0.632812,48.6562375Q0,49.2890375,0,50.2734375Q0,51.2578375,0.632812,51.8906375Q1.26562,52.5234375,2.25,52.5234375L9,52.5234375L9,63.7734375Z" fill="#2563EB" fill-opacity="1" style="mix-blend-mode:passthrough"/></g></g></g></svg>