<svg xmlns="http://www.w3.org/2000/svg" xmlns:xlink="http://www.w3.org/1999/xlink" fill="none" version="1.1" width="45" height="36" viewBox="0 0 45 36"><defs><clipPath id="master_svg0_1_117"><rect x="0" y="0" width="45" height="36" rx="0"/></clipPath></defs><g clip-path="url(#master_svg0_1_117)"><g transform="matrix(1,0,0,-1,0,67)"><g><path d="M10.625,33.5Q6.33594,33.640625,3.45312,36.45312Q0.640625,39.33594,0.5,43.625Q0.5703125,47,2.39844,49.5312Q4.22656,52.0625,7.25,53.1875Q7.25,53.4688,7.25,53.75Q7.39062,58.5312,10.5547,61.6953Q13.7188,64.8594,18.5,65Q21.6641,64.9297,24.1953,63.4531Q26.7266,61.9062,28.2734,59.375Q29.8906,60.5,32,60.5Q34.8828,60.4297,36.7812,58.5312Q38.6797,56.6328,38.75,53.75Q38.75,52.4844,38.3281,51.289100000000005Q41.4219,50.6562,43.4609,48.1953Q45.4297,45.8047,45.5,42.5Q45.4297,38.70312,42.8984,36.10156Q40.2969,33.5703125,36.5,33.5L10.625,33.5ZM16.1797,48.7578Q15.1953,47.5625,16.1797,46.3672Q17.375,45.3828,18.5703,46.3672L21.3125,49.1094L21.3125,39.6875Q21.4531,38.14062,23,38Q24.5469,38.14062,24.6875,39.6875L24.6875,49.1094L27.4297,46.3672Q28.625,45.3828,29.8203,46.3672Q30.8047,47.5625,29.8203,48.7578L24.1953,54.3828Q23,55.3672,21.8047,54.3828L16.1797,48.7578Z" fill="#9CA3AF" fill-opacity="1" style="mix-blend-mode:passthrough"/></g></g></g></svg>