<svg xmlns="http://www.w3.org/2000/svg" xmlns:xlink="http://www.w3.org/1999/xlink" fill="none" version="1.1" width="24" height="24" viewBox="0 0 24 24"><defs><clipPath id="master_svg0_1_0153"><rect x="0" y="0" width="24" height="24" rx="0"/></clipPath></defs><g clip-path="url(#master_svg0_1_0153)"><g transform="matrix(1,0,0,-1,0,49.037109375)"><g><path d="M16.5,36.5214546875Q16.5,34.9746546875,16.3594,33.5214846875L7.64062,33.5214846875Q7.5,34.9746546875,7.5,36.5214546875Q7.5,38.0683546875,7.64062,39.5214546875L16.3594,39.5214546875Q16.5,38.0683546875,16.5,36.5214546875ZM17.8594,39.5214546875L23.625,39.5214546875L17.8594,39.5214546875L23.625,39.5214546875Q24,38.0683546875,24,36.5214546875Q24,34.9746546875,23.625,33.5214846875L17.8594,33.5214846875Q18,34.9746546875,18,36.5214546875Q18,38.0683546875,17.8594,39.5214546875ZM23.1094,41.0214546875L17.6719,41.0214546875L23.1094,41.0214546875L17.6719,41.0214546875Q16.9219,45.6152546875,15.0469,48.1464546875Q17.8594,47.3496546875,19.9688,45.5214546875Q22.0312,43.6464546875,23.1094,41.0214546875ZM16.125,41.0214546875L7.875,41.0214546875L16.125,41.0214546875L7.875,41.0214546875Q8.29688,43.5996546875,9.14062,45.4746546875Q9.89062,47.1152546875,10.6875,47.8652546875Q11.4844,48.568354687500005,12,48.5214546875Q12.5156,48.568354687500005,13.3125,47.8652546875Q14.1094,47.1152546875,14.8594,45.4746546875Q15.7031,43.5996546875,16.125,41.0214546875ZM6.32812,41.0214546875L0.890625,41.0214546875L6.32812,41.0214546875L0.890625,41.0214546875Q1.96875,43.6464546875,4.03125,45.5214546875Q6.14062,47.3496546875,8.95312,48.1464546875Q7.07812,45.6152546875,6.32812,41.0214546875ZM0.375,39.5214546875L6.14062,39.5214546875L0.375,39.5214546875L6.14062,39.5214546875Q6,38.0683546875,6,36.5214546875Q6,34.9746546875,6.14062,33.5214846875L0.375,33.5214846875Q0,34.9746546875,0,36.5214546875Q0,38.0683546875,0.375,39.5214546875ZM9.14062,27.5683546875Q8.29688,29.4433546875,7.875,32.0214846875L16.125,32.0214846875Q15.7031,29.4433546875,14.8594,27.5683546875Q14.1094,25.9277346875,13.3125,25.1777346875Q12.5156,24.4746093875,12,24.5214843775Q11.4844,24.4746093875,10.6875,25.1777346875Q9.89062,25.9277346875,9.14062,27.5683546875ZM6.32812,32.0214846875Q7.07812,27.4277346875,8.95312,24.8964846875Q6.14062,25.6933546875,4.03125,27.5214846875Q1.96875,29.3964846875,0.890625,32.0214846875L6.32812,32.0214846875ZM23.1094,32.0214846875Q22.0312,29.3964846875,19.9688,27.5214846875Q17.8594,25.6933546875,15.0938,24.8964846875Q16.9219,27.4277346875,17.6719,32.0214846875L23.1562,32.0214846875L23.1094,32.0214846875Z" fill="#3B82F6" fill-opacity="1" style="mix-blend-mode:passthrough"/></g></g></g></svg>