<svg xmlns="http://www.w3.org/2000/svg" xmlns:xlink="http://www.w3.org/1999/xlink" fill="none" version="1.1" width="16" height="16" viewBox="0 0 16 16"><defs><clipPath id="master_svg0_1_0635"><rect x="0" y="0" width="16" height="16" rx="0"/></clipPath></defs><g clip-path="url(#master_svg0_1_0635)"><g transform="matrix(1,0,0,-1,0,32.6875)"><g><path d="M9,28.93755L9,21.34375L9,28.93755L9,21.34375Q9,20.90625,8.71875,20.625Q8.4375,20.34375,8,20.34375Q7.5625,20.34375,7.28125,20.625Q7,20.90625,7,21.34375L7,28.93755L4.71875,26.62495Q4.40625,26.34375,4,26.34375Q3.59375,26.34375,3.28125,26.62495Q3,26.93755,3,27.34375Q3,27.74995,3.28125,28.06255L7.28125,32.06255Q7.59375,32.34375,8,32.34375Q8.40625,32.34375,8.71875,32.06255L12.7188,28.06255Q13,27.74995,13,27.34375Q13,26.93755,12.7188,26.62495Q12.4062,26.34375,12,26.34375Q11.5938,26.34375,11.2812,26.62495L9,28.93755ZM2,21.34375L6,21.34375L2,21.34375L6,21.34375Q6.03125,20.5,6.59375,19.9375Q7.15625,19.375,8,19.34375Q8.84375,19.375,9.40625,19.9375Q9.96875,20.5,10,21.34375L14,21.34375Q14.8438,21.3125,15.4062,20.75Q15.9688,20.1875,16,19.34375L16,18.34375Q15.9688,17.5,15.4062,16.9375Q14.8438,16.375,14,16.34375L2,16.34375Q1.15625,16.375,0.59375,16.9375Q0.03125,17.5,0,18.34375L0,19.34375Q0.03125,20.1875,0.59375,20.75Q1.15625,21.3125,2,21.34375ZM13.5,18.09375Q14.1875,18.15625,14.25,18.84375Q14.1875,19.53125,13.5,19.59375Q12.8125,19.53125,12.75,18.84375Q12.8125,18.15625,13.5,18.09375Z" fill="#FFFFFF" fill-opacity="1" style="mix-blend-mode:passthrough"/></g></g></g></svg>