<svg xmlns="http://www.w3.org/2000/svg" xmlns:xlink="http://www.w3.org/1999/xlink" fill="none" version="1.1" width="36" height="36" viewBox="0 0 36 36"><defs><clipPath id="master_svg0_1_009"><rect x="0" y="0" width="36" height="36" rx="0"/></clipPath></defs><g clip-path="url(#master_svg0_1_009)"><g transform="matrix(1,0,0,-1,0,73.546875)"><g><path d="M0,54.7734375Q0.0703125,59.6953375,2.39062,63.7734375Q4.78125,67.8515375,9,70.3828375Q13.2891,72.7734375,18,72.7734375Q22.7109,72.7734375,27,70.3828375Q31.2188,67.8515375,33.6094,63.7734375Q35.9297,59.6953375,36,54.7734375Q35.9297,49.8515375,33.6094,45.7734375Q31.2188,41.6953175,27,39.1640575Q22.7109,36.7734375,18,36.7734375Q13.2891,36.7734375,9,39.1640575Q4.78125,41.6953175,2.39062,45.7734375Q0.0703125,49.8515375,0,54.7734375ZM13.2188,62.437537500000005Q12.375,61.9453375,12.375,60.9609375L12.375,48.5859375Q12.375,47.6015375,13.2188,47.1093375Q14.1328,46.6874975,14.9766,47.1796375L25.1016,53.3672375Q25.875,53.859337499999995,25.875,54.7734375Q25.875,55.687537500000005,25.1016,56.250037500000005L14.9766,62.437537500000005Q14.1328,62.859337499999995,13.2188,62.437537500000005Z" fill="#4F46E5" fill-opacity="1" style="mix-blend-mode:passthrough"/></g></g></g></svg>