<svg xmlns="http://www.w3.org/2000/svg" xmlns:xlink="http://www.w3.org/1999/xlink" fill="none" version="1.1" width="16" height="16" viewBox="0 0 16 16"><defs><clipPath id="master_svg0_1_0710"><rect x="0" y="0" width="16" height="16" rx="0"/></clipPath></defs><g clip-path="url(#master_svg0_1_0710)"><g transform="matrix(1,0,0,-1,0,32.6875)"><g><path d="M8,32.34375Q10.1875,32.31255,12,31.28125Q13.8125,30.21875,14.9375,28.34375Q16,26.43755,16,24.34375Q16,22.25,14.9375,20.34375Q13.8125,18.46875,12,17.40625Q10.1875,16.375,8,16.34375Q5.8125,16.375,4,17.40625Q2.1875,18.46875,1.0625,20.34375Q0,22.25,0,24.34375Q0,26.43755,1.0625,28.34375Q2.1875,30.21875,4,31.28125Q5.8125,32.31255,8,32.34375ZM7.25,28.59375L7.25,24.34375L7.25,28.59375L7.25,24.34375Q7.25,23.9375,7.59375,23.71875L10.5938,21.71875Q11.1875,21.375,11.625,21.9375Q11.9688,22.53125,11.4062,22.96875L8.75,24.75L8.75,28.59375Q8.6875,29.28125,8,29.34375Q7.3125,29.28125,7.25,28.59375Z" fill="#FFFFFF" fill-opacity="1" style="mix-blend-mode:passthrough"/></g></g></g></svg>