<svg xmlns="http://www.w3.org/2000/svg" xmlns:xlink="http://www.w3.org/1999/xlink" fill="none" version="1.1" width="24" height="24" viewBox="0 0 24 24"><defs><clipPath id="master_svg0_1_0251"><rect x="0" y="0" width="24" height="24" rx="0"/></clipPath></defs><g clip-path="url(#master_svg0_1_0251)"><g transform="matrix(1,0,0,-1,0,49.03125)"><g><path d="M21,36.515625Q21,38.953125,19.7812,41.015625Q18.6094,43.078125,16.5,44.296825Q14.3906,45.515625,12,45.515625Q9.60938,45.515625,7.5,44.296825Q5.39062,43.078125,4.21875,41.015625Q3,38.953125,3,36.515625Q3,34.078125,4.21875,32.015625Q5.39062,29.953125,7.5,28.734375Q9.60938,27.515625,12,27.515625Q14.3906,27.515625,16.5,28.734375Q18.6094,29.953125,19.7812,32.015625Q21,34.078125,21,36.515625ZM0,36.515625Q0.046875,39.796825,1.59375,42.515625Q3.1875,45.234425,6,46.921825Q8.85938,48.515625,12,48.515625Q15.1406,48.515625,18,46.921825Q20.8125,45.234425,22.4062,42.515625Q23.9531,39.796825,24,36.515625Q23.9531,33.234375,22.4062,30.515625Q20.8125,27.796875,18,26.109375Q15.1406,24.515625,12,24.515625Q8.85938,24.515625,6,26.109375Q3.1875,27.796875,1.59375,30.515625Q0.046875,33.234375,0,36.515625ZM12,32.765625Q14.1094,32.812505,15.2344,34.640625Q16.2656,36.515625,15.2344,38.390625Q14.1094,40.218725,12,40.265625Q9.89062,40.218725,8.76562,38.390625Q7.73438,36.515625,8.76562,34.640625Q9.89062,32.812505,12,32.765625ZM12,43.265625Q13.8281,43.265625,15.375,42.375025Q16.9219,41.484425,17.8594,39.890625Q18.75,38.296825,18.75,36.515625Q18.75,34.734425,17.8594,33.140625Q16.9219,31.546875,15.375,30.656245Q13.8281,29.765625,12,29.765625Q10.1719,29.765625,8.625,30.656245Q7.07812,31.546875,6.14062,33.140625Q5.25,34.734425,5.25,36.515625Q5.25,38.296825,6.14062,39.890625Q7.07812,41.484425,8.625,42.375025Q10.1719,43.265625,12,43.265625ZM10.5,36.515625Q10.5,37.171825,10.9219,37.593725Q11.3438,38.015625,12,38.015625Q12.6562,38.015625,13.0781,37.593725Q13.5,37.171825,13.5,36.515625Q13.5,35.859425,13.0781,35.437525Q12.6562,35.015625,12,35.015625Q11.3438,35.015625,10.9219,35.437525Q10.5,35.859425,10.5,36.515625Z" fill="#EF4444" fill-opacity="1" style="mix-blend-mode:passthrough"/></g></g></g></svg>