<svg xmlns="http://www.w3.org/2000/svg" xmlns:xlink="http://www.w3.org/1999/xlink" fill="none" version="1.1" width="23.59375" height="20" viewBox="0 0 23.59375 20"><defs><clipPath id="master_svg0_1_101"><rect x="0" y="0" width="23.59375" height="20" rx="0"/></clipPath></defs><g clip-path="url(#master_svg0_1_101)"><g transform="matrix(1,0,0,-1,0,39.25445556640625)"><g><path d="M21.249975,28.356017783203125Q22.890675,30.113827783203124,22.890675,32.37942778320313Q22.890675,34.606027783203125,21.249975,36.36382778320312Q19.726575,37.809127783203124,17.695275,38.00442778320313Q15.703074999999998,38.16072778320313,13.984375,36.94972778320313L13.906275,36.91072778320313Q13.476575,36.59822778320313,13.398475,36.090427783203126Q13.320275,35.621627783203124,13.632775,35.152927783203126Q13.945275,34.76222778320312,14.414075,34.684127783203124Q14.921875,34.56692778320313,15.351575,34.87942778320313L15.429675,34.918527783203125Q16.406275,35.58262778320312,17.499975,35.50442778320313Q18.632775,35.42632778320312,19.492175,34.606027783203125Q20.390675,33.62942778320313,20.390675,32.37942778320313Q20.390675,31.090427783203126,19.492175,30.152927783203126L15.078075,25.738837783203124Q14.101575,24.840397783203123,12.851575,24.840397783203123Q11.601575,24.840397783203123,10.624975,25.738837783203124Q9.804675,26.598207783203126,9.726575,27.731017783203125Q9.648475,28.824767783203125,10.312475,29.801327783203124L10.351575,29.879427783203127Q10.624975,30.309127783203124,10.546875,30.777927783203126Q10.468775,31.285727783203125,10.039075,31.598227783203125Q9.609375,31.910727783203125,9.140625,31.832627783203122Q8.632815,31.754427783203127,8.320315,31.324727783203123L8.281255,31.246627783203124Q7.070315,29.527897783203123,7.226565,27.496647783203123Q7.382815000000001,25.504457783203126,8.867185,23.981017783203125Q10.624975,22.340397783203123,12.851575,22.340397783203123Q15.117175,22.340397783203123,16.874975,23.981017783203125L21.249975,28.356017783203125ZM0.937495,29.293517783203125Q-0.703125,27.535707783203126,-0.703125,25.270087783203124Q-0.703125,23.043517783203125,0.937495,21.285707783203126Q2.460935,19.840397783203127,4.492185,19.645084883203126Q6.484375,19.488834783203124,8.242185,20.699767783203125L8.281255,20.738837783203124Q8.710935,21.051337783203124,8.789065,21.559147783203127Q8.867185,22.027897783203123,8.593755,22.496647783203123Q8.242185,22.887267783203125,7.773434999999999,22.965397783203123Q7.265625,23.082587783203124,6.835935,22.770087783203124L6.757815,22.731017783203125Q5.781255,22.066957783203126,4.687495,22.145087783203124Q3.554685,22.223207783203126,2.695315,23.043517783203125Q1.796875,24.020087783203124,1.796875,25.270087783203124Q1.796875,26.559147783203123,2.734375,27.496647783203123L7.109375,31.910727783203125Q8.085935,32.809127783203124,9.335975,32.809127783203124Q10.585975,32.809127783203124,11.562475,31.910727783203125Q12.382775,31.051327783203124,12.460975,29.918527783203125Q12.539075,28.824767783203125,11.874975,27.848207783203126L11.835975,27.770087783203124Q11.562475,27.340397783203123,11.640675,26.832587783203124Q11.718775,26.363837783203124,12.148475,26.051337783203124Q12.578075,25.738837783203124,13.046875,25.816957783203126Q13.554675,25.895087783203124,13.867175,26.324767783203125L13.906275,26.402897783203123Q15.117175,28.121647783203123,14.960975,30.152927783203126Q14.804675,32.14512778320312,13.320275,33.668527783203125Q11.562475,35.309127783203124,9.335975,35.309127783203124Q7.070315,35.309127783203124,5.351565,33.668527783203125L0.937495,29.293517783203125Z" fill="#4F46E5" fill-opacity="1" style="mix-blend-mode:passthrough"/></g></g></g></svg>