<svg xmlns="http://www.w3.org/2000/svg" xmlns:xlink="http://www.w3.org/1999/xlink" fill="none" version="1.1" width="20" height="16" viewBox="0 0 20 16"><defs><clipPath id="master_svg0_1_0620"><rect x="0" y="0" width="20" height="16" rx="0"/></clipPath></defs><g clip-path="url(#master_svg0_1_0620)"><g transform="matrix(1,0,0,-1,0,26.6875)"><g><path d="M0,18.8125Q0.0625,20.75,1.34375,22Q2.59375,23.28125,4.53125,23.34375Q6.40625,23.3125,7.75,22L10,19.75L12.25,22Q13.5938,23.3125,15.4688,23.34375Q17.4062,23.28125,18.6562,22Q19.9375,20.75,20,18.8125L20,17.875Q19.9375,15.9375,18.6562,14.6875Q17.4062,13.40625,15.4688,13.34375Q13.5938,13.375,12.25,14.65625L10,16.9375L7.75,14.65625Q6.40625,13.375,4.53125,13.34375Q2.59375,13.40625,1.34375,14.6875Q0.0625,15.9375,0,17.875L0,18.8125ZM8.59375,18.34375L6.34375,20.59375L8.59375,18.34375L6.34375,20.59375Q5.59375,21.3125,4.53125,21.34375Q3.46875,21.3125,2.75,20.59375Q2.03125,19.875,2,18.8125L2,17.875Q2.03125,16.8125,2.75,16.09375Q3.46875,15.375,4.53125,15.34375Q5.59375,15.375,6.34375,16.09375L8.59375,18.34375ZM11.4062,18.34375L13.6562,16.09375L11.4062,18.34375L13.6562,16.09375Q14.4062,15.34375,15.4688,15.34375Q16.5312,15.375,17.25,16.09375Q17.9688,16.8125,18,17.875L18,18.8125Q17.9688,19.875,17.25,20.59375Q16.5312,21.3125,15.4688,21.34375Q14.4062,21.3125,13.6562,20.59375L11.4062,18.34375Z" fill="#FFFFFF" fill-opacity="1" style="mix-blend-mode:passthrough"/></g></g></g></svg>