<svg xmlns="http://www.w3.org/2000/svg" xmlns:xlink="http://www.w3.org/1999/xlink" fill="none" version="1.1" width="22.59375" height="24" viewBox="0 0 22.59375 24"><defs><clipPath id="master_svg0_1_0230"><rect x="0" y="0" width="22.59375" height="24" rx="0"/></clipPath></defs><g clip-path="url(#master_svg0_1_0230)"><g transform="matrix(1,0,0,-1,0,47.71875)"><g><path d="M11.549379768371582,47.718775Q11.877479768371582,47.718775,12.158679768371583,47.578175L21.01807976837158,43.828175Q21.814979768371582,43.499975,22.28367976837158,42.796875Q22.799379768371583,42.093775,22.799379768371583,41.156275Q22.84617976837158,38.765575,22.002479768371582,35.531275Q21.15867976837158,32.296875,18.95557976837158,29.249995Q16.799379768371583,26.156255,12.768079768371582,24.140625Q11.549379768371582,23.578125,10.330579768371582,24.140625Q6.299349768371582,26.156255,4.143099768371583,29.249995Q1.939969768371582,32.296875,1.096221768371582,35.531275Q0.25247186837158203,38.765575,0.29934686837158203,41.156275Q0.29934686837158203,42.093775,0.814971768371582,42.796875Q1.283721768371582,43.499975,2.080599768371582,43.828175L10.939979768371582,47.578175Q11.221179768371583,47.718775,11.549379768371582,47.718775ZM11.549379768371582,44.578175L11.549379768371582,26.859375L11.549379768371582,44.578175L11.549379768371582,26.859375Q14.736879768371582,28.499995,16.564979768371582,31.031255Q18.34617976837158,33.562495,19.09617976837158,36.234375Q19.799379768371583,38.953175,19.799379768371583,41.109375L11.549379768371582,44.578175Z" fill="#EAB308" fill-opacity="1" style="mix-blend-mode:passthrough"/></g></g></g></svg>