<svg xmlns="http://www.w3.org/2000/svg" xmlns:xlink="http://www.w3.org/1999/xlink" fill="none" version="1.1" width="11" height="16" viewBox="0 0 11 16"><defs><clipPath id="master_svg0_1_0684"><rect x="0" y="0" width="11" height="16" rx="0"/></clipPath></defs><g clip-path="url(#master_svg0_1_0684)"><g transform="matrix(1,0,0,-1,0,32.6875)"><g><path d="M2,29.34375L2,24.34375L2,29.34375L2,24.34375Q2.03125,23.0625,2.875,22.21875Q3.71875,21.375,5,21.34375Q6.28125,21.375,7.125,22.21875Q7.96875,23.0625,8,24.34375L5.5,24.34375Q5.03125,24.375,5,24.84375Q5.03125,25.3125,5.5,25.34375L8,25.34375L8,26.34375L5.5,26.34375Q5.03125,26.37495,5,26.84375Q5.03125,27.31255,5.5,27.34375L8,27.34375L8,28.34375L5.5,28.34375Q5.03125,28.37495,5,28.84375Q5.03125,29.31255,5.5,29.34375L8,29.34375Q7.96875,30.62495,7.125,31.46875Q6.28125,32.31255,5,32.34375Q3.71875,32.31255,2.875,31.46875Q2.03125,30.62495,2,29.34375ZM9,24.84375L9,24.34375L9,24.84375L9,24.34375Q8.96875,22.65625,7.84375,21.5Q6.6875,20.375,5,20.34375Q3.3125,20.375,2.15625,21.5Q1.03125,22.65625,1,24.34375L1,25.59375Q0.9375,26.28125,0.25,26.34375Q-0.4375,26.28125,-0.5,25.59375L-0.5,24.34375Q-0.46875,22.21875,0.875,20.71875Q2.1875,19.21875,4.25,18.90625L4.25,17.84375L2.75,17.84375Q2.0625,17.78125,2,17.09375Q2.0625,16.40625,2.75,16.34375L5,16.34375L7.25,16.34375Q7.9375,16.40625,8,17.09375Q7.9375,17.78125,7.25,17.84375L5.75,17.84375L5.75,18.90625Q7.8125,19.21875,9.125,20.71875Q10.4688,22.21875,10.5,24.34375L10.5,25.59375Q10.4375,26.28125,9.75,26.34375Q9.0625,26.28125,9,25.59375L9,24.84375Z" fill="#FFFFFF" fill-opacity="1" style="mix-blend-mode:passthrough"/></g></g></g></svg>