<svg xmlns="http://www.w3.org/2000/svg" xmlns:xlink="http://www.w3.org/1999/xlink" fill="none" version="1.1" width="22.5" height="20" viewBox="0 0 22.5 20"><defs><clipPath id="master_svg0_1_034"><rect x="0" y="0" width="22.5" height="20" rx="0"/></clipPath></defs><g clip-path="url(#master_svg0_1_034)"><g transform="matrix(1,0,0,-1,0,35.859375)"><g><path d="M0,30.4296875Q0.0390625,31.4843875,0.742188,32.1874875Q1.44531,32.8905875,2.5,32.9296875L12.5,32.9296875Q13.5547,32.8905875,14.2578,32.1874875Q14.9609,31.4843875,15,30.4296875L15,20.4296875Q14.9609,19.3749975,14.2578,18.6718755Q13.5547,17.96875,12.5,17.9296875L2.5,17.9296875Q1.44531,17.96875,0.742188,18.6718755Q0.0390625,19.3749975,0,20.4296875L0,30.4296875ZM21.8359,31.5234875Q22.4609,31.1718875,22.5,30.4296875L22.5,20.4296875Q22.4609,19.6874975,21.8359,19.3359375Q21.1719,18.9843775,20.5469,19.3749975L16.7969,21.8749975L16.25,22.2656275L16.25,22.9296875L16.25,27.9296875L16.25,28.593787499999998L16.7969,28.9843875L20.5469,31.4843875Q21.1719,31.8358875,21.8359,31.5234875Z" fill="#4F46E5" fill-opacity="1" style="mix-blend-mode:passthrough"/></g></g></g></svg>