<svg xmlns="http://www.w3.org/2000/svg" xmlns:xlink="http://www.w3.org/1999/xlink" fill="none" version="1.1" width="13.75" height="20" viewBox="0 0 13.75 20"><defs><clipPath id="master_svg0_1_059"><rect x="0" y="0" width="13.75" height="20" rx="0"/></clipPath></defs><g clip-path="url(#master_svg0_1_059)"><g transform="matrix(1,0,0,-1,0,40.859375)"><g><path d="M6.25,40.4296875Q4.64844,40.390587499999995,3.59375,39.3358875Q2.53906,38.281287500000005,2.5,36.6796875L2.5,30.4296875Q2.53906,28.8281275,3.59375,27.7734375Q4.64844,26.7187475,6.25,26.6796875Q7.851559999999999,26.7187475,8.90625,27.7734375Q9.9609,28.8281275,10,30.4296875L10,36.6796875Q9.9609,38.281287500000005,8.90625,39.3358875Q7.851559999999999,40.390587499999995,6.25,40.4296875ZM1.25,31.9921875Q1.17188,32.8515875,0.3125,32.9296875Q-0.546875,32.8515875,-0.625,31.9921875L-0.625,30.4296875Q-0.5859375,27.7734375,1.09375,25.8984375Q2.73438,24.0234375,5.3125,23.6328075L5.3125,22.3046875L3.4375,22.3046875Q2.57812,22.2265675,2.5,21.3671875Q2.57812,20.5078125,3.4375,20.4296875L6.25,20.4296875L9.0625,20.4296875Q9.9219,20.5078125,10,21.3671875Q9.9219,22.2265675,9.0625,22.3046875L7.1875,22.3046875L7.1875,23.6328075Q9.7656,24.0234375,11.4062,25.8984375Q13.0859,27.7734375,13.125,30.4296875L13.125,31.9921875Q13.0469,32.8515875,12.1875,32.9296875Q11.3281,32.8515875,11.25,31.9921875L11.25,30.4296875Q11.2109,28.3203075,9.8047,26.8749975Q8.35938,25.4687475,6.25,25.4296875Q4.14062,25.4687475,2.69531,26.8749975Q1.28906,28.3203075,1.25,30.4296875L1.25,31.9921875Z" fill="#4F46E5" fill-opacity="1" style="mix-blend-mode:passthrough"/></g></g></g></svg>