<svg xmlns="http://www.w3.org/2000/svg" xmlns:xlink="http://www.w3.org/1999/xlink" fill="none" version="1.1" width="30" height="24" viewBox="0 0 30 24"><defs><clipPath id="master_svg0_1_0209"><rect x="0" y="0" width="30" height="24" rx="0"/></clipPath></defs><g clip-path="url(#master_svg0_1_0209)"><g transform="matrix(1,0,0,-1,0,43.03125)"><g><path d="M0,36.515625Q0.046875,37.781225,0.890625,38.625025Q1.73438,39.468725,3,39.515625L12,39.515625L27,39.515625Q28.2656,39.468725,29.1094,38.625025Q29.9531,37.781225,30,36.515625L30,24.515625Q29.9531,23.250005,29.1094,22.40625Q28.2656,21.5625,27,21.515625L15,21.515625L3,21.515625Q1.73438,21.5625,0.890625,22.40625Q0.046875,23.250005,0,24.515625L0,36.515625ZM15,36.515625L15,24.515625L15,36.515625L15,24.515625L27,24.515625L27,36.515625L15,36.515625ZM8.34375,34.265625Q8.10938,34.781225,7.5,34.828125Q6.89062,34.781225,6.65625,34.265625L3.65625,27.515625Q3.375,26.718745,4.125,26.296875Q4.92188,26.015625,5.34375,26.765625L5.76562,27.703125L9.23438,27.703125L9.65625,26.765625Q10.0781,26.015625,10.875,26.296875Q11.625,26.718745,11.3438,27.515625L8.34375,34.265625ZM7.5,31.593725L8.39062,29.578125L7.5,31.593725L8.39062,29.578125L6.60938,29.578125L7.5,31.593725ZM21,34.828125Q21.8438,34.734425,21.9375,33.890625L21.9375,33.703125L24,33.703125L24.75,33.703125Q25.5938,33.609425,25.6875,32.765625Q25.5938,31.921825,24.75,31.828125L24.6562,31.828125L24.5625,31.593725Q23.9531,29.906245,22.7344,28.546875Q22.7812,28.500005,22.875,28.453125L23.7188,27.937505Q24.4219,27.421875,24.0469,26.671875Q23.5312,25.968745,22.7812,26.343745L21.8906,26.859375Q21.5625,27.046875,21.2812,27.281245Q20.5312,26.718745,19.6875,26.343745L19.5,26.296875Q18.7031,26.015625,18.2812,26.765625Q18,27.562505,18.75,27.984375L18.9375,28.078125Q19.3594,28.265625,19.7812,28.546875L19.2188,29.109375Q18.6562,29.765625,19.2188,30.421875Q19.875,30.984375,20.5312,30.421875L21.2344,29.765625L21.2344,29.718745Q22.125,30.656245,22.6406,31.828125L21,31.828125L17.625,31.828125Q16.7812,31.921825,16.6875,32.765625Q16.7812,33.609425,17.625,33.703125L20.0625,33.703125L20.0625,33.890625Q20.1562,34.734425,21,34.828125Z" fill="#22C55E" fill-opacity="1" style="mix-blend-mode:passthrough"/></g></g></g></svg>