<svg xmlns="http://www.w3.org/2000/svg" xmlns:xlink="http://www.w3.org/1999/xlink" fill="none" version="1.1" width="15" height="20" viewBox="0 0 15 20"><defs><clipPath id="master_svg0_1_123"><rect x="0" y="0" width="15" height="20" rx="0"/></clipPath></defs><g clip-path="url(#master_svg0_1_123)"><g transform="matrix(1,0,0,-1,0,40.859375)"><g><path d="M2.5,40.4296875Q1.44531,40.390587499999995,0.742188,39.6874875Q0.0390625,38.9843875,0,37.9296875L0,22.9296875Q0.0390625,21.8749975,0.742188,21.1718755Q1.44531,20.46875,2.5,20.4296875L12.5,20.4296875Q13.5547,20.46875,14.2578,21.1718755Q14.9609,21.8749975,15,22.9296875L15,34.1796875L10,34.1796875Q9.45312,34.1796875,9.10156,34.5312875Q8.75,34.8827875,8.75,35.4296875L8.75,40.4296875L2.5,40.4296875ZM10,40.4296875L10,35.4296875L10,40.4296875L10,35.4296875L15,35.4296875L10,40.4296875ZM10.0781,31.6015875Q11.1719,30.9374875,11.8359,29.8046875Q12.5,28.6718775,12.5,27.3046875Q12.5,25.9374975,11.8359,24.8046875Q11.1719,23.6718775,10.0781,23.0078075Q9.57031,22.7734375,9.21875,23.2421875Q8.98438,23.7499975,9.41406,24.1015675Q10.2734,24.6093775,10.7422,25.4296875Q11.25,26.2890675,11.25,27.3046875Q11.25,28.3203075,10.7422,29.1796875Q10.2734,29.9999975,9.45312,30.5077875Q8.98438,30.8593875,9.21875,31.3671875Q9.57031,31.8358875,10.0781,31.6015875ZM6.48438,30.3906275Q6.875,30.1953075,6.875,29.8046875L6.875,24.8046875Q6.875,24.4140675,6.48438,24.2187475Q6.09375,24.1015675,5.82031,24.3749975L4.41406,25.7421875L3.125,25.7421875Q2.53906,25.7812475,2.5,26.3671875L2.5,28.2421875Q2.53906,28.8281275,3.125,28.8671875L4.41406,28.8671875L5.82031,30.2343775Q6.09375,30.5077875,6.48438,30.3906275ZM8.47656,29.0234375Q8.94531,29.3749975,9.375,28.9843775Q9.96094,28.2812475,10,27.3046875Q9.96094,26.3281275,9.375,25.6249975Q8.94531,25.2343775,8.47656,25.5859375Q8.08594,26.0156275,8.4375,26.4843775Q8.75,26.7968775,8.75,27.3046875Q8.75,27.7734375,8.4375,28.1249975Q8.08594,28.5937475,8.47656,29.0234375Z" fill="#4F46E5" fill-opacity="1" style="mix-blend-mode:passthrough"/></g></g></g></svg>