<svg xmlns="http://www.w3.org/2000/svg" xmlns:xlink="http://www.w3.org/1999/xlink" fill="none" version="1.1" width="22.5" height="24" viewBox="0 0 22.5 24"><defs><clipPath id="master_svg0_1_0900"><rect x="0" y="0" width="22.5" height="24" rx="0"/></clipPath></defs><g clip-path="url(#master_svg0_1_0900)"><g transform="matrix(1,0,0,-1,0,46.03125)"><g><path d="M3.42188,36.000025Q3.98438,37.593725,5.20312,38.812525Q7.5,41.015625,10.5,41.015625Q13.5,41.015625,15.7969,38.812525L16.5938,38.015625L15,38.015625Q14.3438,38.015625,13.9219,37.593725Q13.5,37.171825,13.5,36.515625Q13.5,35.859425,13.9219,35.437525Q14.3438,35.015625,15,35.015625L20.25,35.015625Q20.9062,35.015625,21.3281,35.437525Q21.75,35.859425,21.75,36.515625L21.75,41.765625Q21.75,42.421825,21.3281,42.843725Q20.9062,43.265625,20.25,43.265625Q19.5938,43.265625,19.1719,42.843725Q18.75,42.421825,18.75,41.765625L18.75,40.125025L17.9062,40.921825Q15.843800000000002,42.984425,13.1719,43.687525Q10.5,44.343725,7.82812,43.687525Q5.15625,42.984425,3.09375,40.921825Q1.3593799999999998,39.187525,0.60938,37.031225Q0.42188000000000003,36.421825,0.65625,35.859425Q0.9375,35.343725,1.5,35.109425Q2.10938,34.921825,2.67188,35.156225Q3.1875,35.437525,3.42188,36.000025ZM0.32811999999999997,31.968745Q-0.046875,31.828125,-0.328125,31.546875Q-0.609375,31.265625,-0.703125,30.890625Q-0.703125,30.843745,-0.75,30.750005Q-0.75,30.609375,-0.75,30.515625L-0.75,25.265625Q-0.75,24.609375,-0.328125,24.187505Q0.09375,23.765625,0.75,23.765625Q1.40625,23.765625,1.8281200000000002,24.187505Q2.25,24.609375,2.25,25.265625L2.25,26.906245L3.09375,26.109375Q5.15625,24.046875,7.82812,23.34375Q10.5,22.6875,13.1719,23.34375Q15.843800000000002,24.046875,17.9062,26.109375Q19.6406,27.843745,20.3906,30.000005Q20.5781,30.609375,20.3438,31.171875Q20.0625,31.687505,19.5,31.921875Q18.8906,32.109375,18.3281,31.875005Q17.8125,31.593745,17.5781,31.031245Q17.0156,29.484375,15.7969,28.218745Q13.5,26.015625,10.5,26.015625Q7.5,26.015625,5.20312,28.218745L4.40625,29.015625L6,29.015625Q6.65625,29.015625,7.07812,29.437505Q7.5,29.859375,7.5,30.515625Q7.5,31.171875,7.07812,31.593745Q6.65625,32.015625,6,32.015625L0.75,32.015625Q0.65625,32.015625,0.5625,32.015625Q0.42188000000000003,31.968745,0.32811999999999997,31.968745Z" fill="#4F46E5" fill-opacity="1" style="mix-blend-mode:passthrough"/></g></g></g></svg>