<svg xmlns="http://www.w3.org/2000/svg" xmlns:xlink="http://www.w3.org/1999/xlink" fill="none" version="1.1" width="24" height="24" viewBox="0 0 24 24"><defs><clipPath id="master_svg0_1_0853"><rect x="0" y="0" width="24" height="24" rx="0"/></clipPath></defs><g clip-path="url(#master_svg0_1_0853)"><g transform="matrix(1,0,0,-1,0,49.03125)"><g><path d="M12,46.265625Q7.875,46.171825,5.10938,43.406225Q2.34375,40.640625,2.25,36.515625L2.25,34.640625Q2.15625,33.609375,1.125,33.515625Q0.09375,33.609375,0,34.640625L0,36.515625Q0.046875,39.890625,1.64062,42.562525Q3.23438,45.281225,5.95312,46.875025Q8.625,48.468725,12,48.515625Q15.375,48.468725,18.0469,46.875025Q20.7656,45.281225,22.3594,42.562525Q23.9531,39.890625,24,36.515625L24,29.765625Q23.9531,28.031245,22.7812,26.859375Q21.6094,25.687505,19.875,25.640625L14.7188,25.640625Q14.0625,24.5625,12.75,24.515625L11.25,24.515625Q10.3125,24.5625,9.65625,25.171875Q9.04688,25.828125,9,26.765625Q9.04688,27.703125,9.65625,28.359375Q10.3125,28.968745,11.25,29.015625L12.75,29.015625Q14.0625,28.968745,14.7188,27.890625L19.875,27.890625Q20.6719,27.890625,21.1875,28.453125Q21.75,28.968745,21.75,29.765625L21.75,36.515625Q21.6562,40.640625,18.8906,43.406225Q16.125,46.171825,12,46.265625ZM6.75,38.765625L7.5,38.765625L6.75,38.765625L7.5,38.765625Q8.15625,38.765625,8.57812,38.343725Q9,37.921825,9,37.265625L9,32.015625Q9,31.359375,8.57812,30.937505Q8.15625,30.515625,7.5,30.515625L6.75,30.515625Q5.48438,30.562505,4.64062,31.406245Q3.79688,32.250005,3.75,33.515625L3.75,35.765625Q3.79688,37.031225,4.64062,37.875025Q5.48438,38.718725,6.75,38.765625ZM17.25,38.765625Q18.5156,38.718725,19.3594,37.875025Q20.2031,37.031225,20.25,35.765625L20.25,33.515625Q20.2031,32.250005,19.3594,31.406245Q18.5156,30.562505,17.25,30.515625L16.5,30.515625Q15.8438,30.515625,15.4219,30.937505Q15,31.359375,15,32.015625L15,37.265625Q15,37.921825,15.4219,38.343725Q15.8438,38.765625,16.5,38.765625L17.25,38.765625Z" fill="#4F46E5" fill-opacity="1" style="mix-blend-mode:passthrough"/></g></g></g></svg>